<?xml version="1.0" encoding="UTF-8" standalone="no"?>
<svg
   xmlns:dc="http://purl.org/dc/elements/1.1/"
   xmlns:cc="http://creativecommons.org/ns#"
   xmlns:rdf="http://www.w3.org/1999/02/22-rdf-syntax-ns#"
   xmlns:svg="http://www.w3.org/2000/svg"
   xmlns="http://www.w3.org/2000/svg"
   xmlns:sodipodi="http://sodipodi.sourceforge.net/DTD/sodipodi-0.dtd"
   xmlns:inkscape="http://www.inkscape.org/namespaces/inkscape"
   aria-hidden="true"
   data-prefix="fas"
   data-icon="id-card"
   class="svg-inline--fa fa-id-card fa-w-18"
   role="img"
   viewBox="0 0 500 500"
   version="1.1"
   id="svg4"
   sodipodi:docname="id-card-solid.svg"
   inkscape:version="0.92.2 (5c3e80d, 2017-08-06)"
   width="500"
   height="500"
   inkscape:export-filename="C:\Users\petero\Downloads\id-card-solid.png"
   inkscape:export-xdpi="96"
   inkscape:export-ydpi="96">
  <metadata
     id="metadata10">
    <rdf:RDF>
      <cc:Work
         rdf:about="">
        <dc:format>image/svg+xml</dc:format>
        <dc:type
           rdf:resource="http://purl.org/dc/dcmitype/StillImage" />
        <dc:title></dc:title>
      </cc:Work>
    </rdf:RDF>
  </metadata>
  <defs
     id="defs8" />
  <sodipodi:namedview
     pagecolor="#2f4f4f"
     bordercolor="#666666"
     borderopacity="1"
     objecttolerance="10"
     gridtolerance="10"
     guidetolerance="10"
     inkscape:pageopacity="1"
     inkscape:pageshadow="2"
     inkscape:window-width="2560"
     inkscape:window-height="1506"
     id="namedview6"
     showgrid="false"
     inkscape:zoom="0.4609375"
     inkscape:cx="288"
     inkscape:cy="256"
     inkscape:window-x="-11"
     inkscape:window-y="-11"
     inkscape:window-maximized="1"
     inkscape:current-layer="svg4" />
  <path
     d="M 422.07426,89.397362 H 77.925746 c -18.999865,0 -34.41485,15.414988 -34.41485,34.414858 v 11.47161 H 456.4891 v -11.47161 c 0,-18.99987 -15.41498,-34.414858 -34.41484,-34.414858 z M 43.510896,376.18778 c 0,18.99987 15.414985,34.41486 34.41485,34.41486 H 422.07426 c 18.99986,0 34.41484,-15.41499 34.41484,-34.41486 V 158.22706 H 43.510896 Z M 295.88646,209.84934 c 0,-3.15469 2.58113,-5.7358 5.73582,-5.7358 h 103.24455 c 3.15469,0 5.73581,2.58111 5.73581,5.7358 v 11.47162 c 0,3.1547 -2.58112,5.73581 -5.73581,5.73581 H 301.62228 c -3.15469,0 -5.73582,-2.58111 -5.73582,-5.73581 z m 0,45.88647 c 0,-3.1547 2.58113,-5.73581 5.73582,-5.73581 h 103.24455 c 3.15469,0 5.73581,2.58111 5.73581,5.73581 v 11.47161 c 0,3.1547 -2.58112,5.73581 -5.73581,5.73581 H 301.62228 c -3.15469,0 -5.73582,-2.58111 -5.73582,-5.73581 z m 0,45.88647 c 0,-3.15469 2.58113,-5.73582 5.73582,-5.73582 h 103.24455 c 3.15469,0 5.73581,2.58113 5.73581,5.73582 v 11.47162 c 0,3.15469 -2.58112,5.7358 -5.73581,5.7358 H 301.62228 c -3.15469,0 -5.73582,-2.58111 -5.73582,-5.7358 z M 169.69868,204.11354 c 25.30925,0 45.88647,20.57721 45.88647,45.88646 0,25.30925 -20.57722,45.88646 -45.88647,45.88646 -25.30925,0 -45.88646,-20.57721 -45.88646,-45.88646 0,-25.30925 20.57721,-45.88646 45.88646,-45.88646 z M 91.619992,350.52004 C 97.642586,332.09376 114.92171,318.8297 135.28383,318.8297 h 5.87921 c 8.8188,3.65658 18.42628,5.73581 28.53564,5.73581 10.10936,0 19.78854,-2.07923 28.53565,-5.73581 h 5.87921 c 20.36211,0 37.64123,13.26406 43.66384,31.69034 2.29431,7.09806 -3.72828,14.19613 -11.18483,14.19613 H 102.80481 c -7.456542,0 -13.479144,-7.16976 -11.184818,-14.19613 z"
     id="path2"
     style="fill:#ffffff;fill-opacity:1;stroke-width:0.71697605"
     inkscape:connector-curvature="0" />
</svg>
